<svg width="24" height="24" viewBox="0 0 24 24" fill="none" xmlns="http://www.w3.org/2000/svg">
<rect width="24" height="24" fill="#E3E3E3"/>
<rect width="2400" height="5644" transform="translate(-448 -4724)" fill="white"/>
<rect x="-368" y="-32" width="998" height="200" rx="16" fill="white"/>
<path d="M12 2C6.486 2 2 6.486 2 12C2 17.514 6.486 22 12 22C17.514 22 22 17.514 22 12C22 6.486 17.514 2 12 2ZM12 20C7.589 20 4 16.411 4 12C4 7.589 7.589 4 12 4C16.411 4 20 7.589 20 12C20 16.411 16.411 20 12 20Z" fill="#002359"/>
<path d="M12 5.16604V12H18.834C18.8362 11.102 18.661 10.2123 18.3184 9.38213C17.9757 8.55198 17.4724 7.79771 16.8374 7.16267C16.2023 6.52763 15.4481 6.02432 14.6179 5.68168C13.7878 5.33903 12.8981 5.16379 12 5.16604Z" fill="#002359"/>
</svg>
